<?xml version="1.0" encoding="UTF-8"?>
<svg id="Layer_1" data-name="Layer 1" xmlns="http://www.w3.org/2000/svg" viewBox="0 0 52.51 55.09">
  <path d="m10.69,22.28c0-6.36,5.16-11.52,11.52-11.52s11.52,5.16,11.52,11.52-5.16,11.52-11.52,11.52h0c-6.36,0-11.51-5.16-11.52-11.52Zm16.85,15.06h-10.66C7.57,37.37.03,44.9,0,54.21c0,.48.38.87.86.88,0,0,.01,0,.02,0h42.66c.48,0,.87-.38.88-.86,0,0,0-.01,0-.02-.01-9.32-7.56-16.86-16.88-16.87Zm24-29.25h-7.12V.97c.05-.48-.3-.92-.78-.97-.48-.05-.92.3-.97.78,0,.06,0,.13,0,.19v7.12h-7.13c-.48.05-.83.49-.78.97.04.41.37.74.78.78h7.13v7.13c.05.48.49.83.97.78.41-.04.74-.37.78-.78v-7.13h7.12c.48.05.92-.3.97-.78.05-.48-.3-.92-.78-.97-.06,0-.13,0-.19,0Z"/>
</svg>